<?xml version="1.0" encoding="UTF-8" standalone="no"?>
<svg
   id="Layer_1"
   data-name="Layer 1"
   viewBox="0 0 1265.2097 1265.4782"
   version="1.1"
   width="1265.2097"
   height="1265.4781"
   xmlns="http://www.w3.org/2000/svg"
   xmlns:svg="http://www.w3.org/2000/svg"
   xmlns:rdf="http://www.w3.org/1999/02/22-rdf-syntax-ns#"
   xmlns:cc="http://creativecommons.org/ns#"
   xmlns:dc="http://purl.org/dc/elements/1.1/">
  <defs
     id="defs291" />
  <title
     id="title282">btcpay-monero</title>
  <g
     id="g1503"
     transform="matrix(0.3368777,0,0,0.3368777,-0.08027797,0)">
    <path
       style="display:inline;fill:#51b13e;fill-opacity:1;stroke-width:1.02929"
       d="M 3661.138,2468.6722 3482.2852,2853.85 c 0,0 10.2964,-12.0224 47.88,-90.2051 132.8298,-276.317 130.9728,-294.9727 130.9728,-294.9727 z"
       id="path1433" />
    <path
       style="display:inline;fill:#51b13e;fill-opacity:1"
       d="m 3483.04,2853.85 177.52,-382.7 h -562 V 891.25 L 1878.04,2111.82 2095.1675,2459.2499 2691.29,1859.72 v 994.13 z"
       id="path1419" />
  </g>
  <path
     style="display:inline;fill:#1e7a44;fill-opacity:1;stroke-width:0.336878"
     d="m 632.58942,711.4251 -75.7019,114.0629 75.6817,74.9962 73.1657,-72.0177 z"
     id="path1350" />
  <metadata
     id="metadata1391">
    <rdf:RDF>
      <cc:Work
         rdf:about="">
        <dc:title>btcpay-monero</dc:title>
      </cc:Work>
    </rdf:RDF>
  </metadata>
  <g
     id="g1767"
     transform="matrix(0.3368777,0,0,0.3368777,-0.08027797,0)">
    <path
       style="display:inline;fill:#cedc21;fill-opacity:1"
       d="M 1878.04,2111.82 1653.3235,2450.4083 1064.67,1859.72 v 994.14 L 273.13,2853.93 95.58,2471.12 663.63617,2463.6924 657.46,891.25 Z"
       id="path1110" />
    <path
       style="display:inline;fill:#cedc21;fill-opacity:1;stroke-width:1.05678"
       d="m 95.113505,2468.7885 92.074825,196.9451 91.60652,195.0966 c 0,0 -10.81716,-7.4234 -56.23944,-101.9531 C 95.565209,2494.5933 95.113505,2468.7885 95.113505,2468.7885 Z"
       id="path1433-6" />
  </g>
  <path
     id="_149931160"
     data-name=" 149931160"
     d="M 538.02792,805.953 358.58322,626.4982 v 334.9036 h -137.1934 l -129.458698,0.024 c 111.044998,182.1835 311.729698,304.0524 540.658298,304.0524 228.9287,0 429.62348,-121.8959 540.68878,-304.0793 H 906.55522 V 626.4986 l -179.4547,179.4548 -94.5313,94.5312 -94.5346,-94.5312 v 0 z"
     style="display:inline;fill:#4d4d4d;stroke-width:0.336878" />
  <path
     id="_149931032"
     data-name=" 149931032"
     d="M 632.58942,0 C 283.28432,0 -0.44417797,283.6713 5.2203493e-4,632.6564 0.08852203,702.4776 11.221922,769.6409 32.118422,832.4653 l 191.365498,-2.5022 -2.0806,-529.7208 411.1861,411.1828 411.16598,-411.1828 v 532.2331 h 189.3253 c 20.9268,-62.821 32.0034,-129.9843 32.128,-199.8089 C 1265.805,283.3176 981.93162,0.0843 632.58942,0.0843 Z"
     style="display:inline;fill:#f26822;stroke-width:0.336878" />
</svg>
